<svg width="27" height="22" viewBox="0 0 27 22" fill="none" xmlns="http://www.w3.org/2000/svg">
<path d="M27 2.94689C26.0437 3.35939 25.0031 3.65627 23.9312 3.77189C25.0441 3.11075 25.8775 2.06626 26.275 0.834388C25.2307 1.4556 24.0867 1.89121 22.8937 2.12189C22.3951 1.58885 21.7921 1.1642 21.1222 0.874412C20.4523 0.584623 19.7299 0.435901 19 0.437513C16.0469 0.437513 13.6719 2.83126 13.6719 5.76877C13.6719 6.18127 13.7219 6.59377 13.8031 6.99064C9.38126 6.75939 5.43751 4.64689 2.81564 1.41251C2.3379 2.2285 2.08755 3.1576 2.09064 4.10314C2.09064 5.95314 3.03126 7.58439 4.46563 8.54377C3.62034 8.51048 2.79483 8.27814 2.05626 7.86564V7.93127C2.05626 10.5219 3.88751 12.6688 6.32813 13.1625C5.86988 13.2816 5.39847 13.3425 4.92501 13.3438C4.57813 13.3438 4.25001 13.3094 3.91876 13.2625C4.59376 15.375 6.55938 16.9094 8.9 16.9594C7.06876 18.3938 4.77501 19.2375 2.28439 19.2375C1.83751 19.2375 1.42501 19.2219 0.996887 19.1719C3.35939 20.6875 6.16251 21.5625 9.18125 21.5625C18.9812 21.5625 24.3437 13.4438 24.3437 6.39689C24.3437 6.16564 24.3437 5.93439 24.3281 5.70314C25.3656 4.94377 26.275 4.00314 27 2.94689Z" fill="white"/>
</svg>
